<svg width="16" height="16" viewBox="0 0 16 16" fill="none" xmlns="http://www.w3.org/2000/svg">
<path d="M14.6667 6.66668V10C14.6667 13.3333 13.3333 14.6667 10 14.6667H6C2.66667 14.6667 1.33333 13.3333 1.33333 10V6.00001C1.33333 2.66668 2.66667 1.33334 6 1.33334H9.33333" stroke="#696979" stroke-linecap="round" stroke-linejoin="round"/>
<path d="M14.6667 6.66668H12C10 6.66668 9.33333 6.00001 9.33333 4.00001V1.33334L14.6667 6.66668Z" stroke="#696979" stroke-linecap="round" stroke-linejoin="round"/>
<path d="M4.41333 10.4867C4.19333 9.79999 4.45333 8.95332 5.16667 8.71999C5.54667 8.59999 6.01333 8.69999 6.27333 9.06665C6.52 8.68665 7.00667 8.59999 7.38 8.71999C8.1 8.95332 8.35333 9.79999 8.14 10.4867C7.8 11.5733 6.60667 12.14 6.27333 12.14C5.94667 12.1333 4.76667 11.58 4.41333 10.4867Z" stroke="#696979" stroke-linecap="round" stroke-linejoin="round"/>
</svg>
